<svg width="170" height="170" viewBox="0 0 170 170" fill="none" xmlns="http://www.w3.org/2000/svg">
<circle cx="85" cy="85" r="84.5" stroke="black"/>
<circle cx="85" cy="85" r="82.5" stroke="#FAEFD6" stroke-width="3"/>
<circle cx="85" cy="85" r="80.5" fill="url(#paint0_radial_5_41)" stroke="black"/>
<path d="M130.114 37.228C108.775 37.228 114.022 28 94 28C89.2 28 88 31 88 34V97C88 103.642 84.904 109 73 109C56.017 109 49 113.392 49 124C49 131.149 50.467 142 72.808 142C93.565 142 94 126.046 94 118C94 114.919 94 106.291 94 97V61C94.015 56.935 94.6 55 97 55C112.414 55 108.613 64 130 64C130 64 136 64 136 58.903C136 51.238 136 45.814 136 42.904C136 38.305 133.936 37.228 130.114 37.228Z" fill="black"/>
<path d="M64.718 135.147C76.3887 140.235 83.8479 129.776 82.8216 128.401" stroke="white"/>
<path d="M61.5235 125.743C61.3047 125.743 61.0781 125.737 60.8438 125.731C59.2891 125.683 58.0078 125.41 57.0313 124.914C56.7656 124.781 56.5235 124.629 56.2969 124.466C55.875 124.157 55.5391 123.776 55.2969 123.34C54.4375 121.759 54.0391 119.846 54.2422 118.223C54.3985 116.928 55.2891 116.05 56.8828 115.608C58.8594 115.057 61.5235 115.275 63.4688 115.432L63.75 115.456C64.9141 115.553 66.0938 115.699 67.2578 115.892C68.6485 116.129 69.7969 116.946 70.2422 118.024C70.5469 118.762 70.3672 119.525 70.1875 120.258C70.1641 120.361 70.1406 120.458 70.1172 120.555C70.086 120.682 70.0625 120.815 70.0313 120.942C69.8594 121.741 69.6719 122.565 69.2891 123.315C68.8594 124.157 68.0313 124.738 66.75 125.102C65.9766 125.32 65.1563 125.429 64.3594 125.538C64.2188 125.556 64.0703 125.574 63.9297 125.598C63.1797 125.695 62.3672 125.743 61.5235 125.743ZM56.961 115.777L57.0391 115.947C55.6094 116.346 54.8438 117.103 54.7031 118.26C54.5078 119.828 54.8906 121.675 55.7266 123.2C55.9375 123.594 56.2422 123.933 56.6172 124.205C56.8203 124.357 57.0469 124.49 57.2891 124.611C58.1953 125.071 59.3985 125.326 60.8672 125.368C61.9297 125.398 62.9375 125.356 63.8516 125.229C63.9922 125.211 64.1406 125.192 64.2813 125.168C65.0547 125.065 65.8594 124.956 66.5938 124.75C67.7344 124.43 68.4766 123.915 68.8516 123.176C69.2188 122.462 69.3906 121.656 69.5625 120.875C69.5938 120.742 69.6172 120.615 69.6485 120.488C69.6719 120.391 69.6953 120.288 69.7188 120.185C69.8828 119.495 70.0547 118.774 69.7891 118.127C69.3906 117.17 68.3828 116.449 67.1485 116.244C66.0078 116.05 64.8438 115.905 63.6953 115.814L63.4141 115.789C61.5156 115.632 58.9063 115.42 57.0313 115.941L56.961 115.777Z" fill="white"/>
<path d="M82.3672 125.743C81.5156 125.743 80.7109 125.689 79.9609 125.586C79.8203 125.568 79.6719 125.55 79.5313 125.525C78.7344 125.422 77.9141 125.313 77.1406 125.089C75.8672 124.732 75.0391 124.145 74.6016 123.303C74.2188 122.553 74.0391 121.729 73.8594 120.93C73.8281 120.797 73.8047 120.67 73.7735 120.542C73.75 120.446 73.7266 120.343 73.7031 120.246C73.5234 119.507 73.3438 118.744 73.6485 118.012C74.0938 116.934 75.2422 116.116 76.6328 115.88C77.7891 115.687 78.9688 115.535 80.1406 115.444L80.4219 115.42C82.3672 115.263 85.0313 115.045 87.0078 115.596C88.6016 116.038 89.4922 116.922 89.6484 118.211C89.8438 119.834 89.4531 121.747 88.5938 123.328C88.3516 123.77 88.0156 124.145 87.5938 124.454C87.3672 124.617 87.1172 124.769 86.8594 124.902C85.8828 125.398 84.6016 125.671 83.0469 125.719C82.8203 125.743 82.5938 125.743 82.3672 125.743ZM83.8125 115.62C82.6406 115.62 81.4609 115.717 80.4688 115.796L80.1875 115.82C79.0391 115.911 77.875 116.056 76.7344 116.25C75.5078 116.455 74.4922 117.182 74.0938 118.133C73.8281 118.78 74 119.495 74.1641 120.191C74.1875 120.294 74.211 120.391 74.2344 120.494C74.2656 120.621 74.2891 120.754 74.3203 120.881C74.4922 121.663 74.6719 122.468 75.0313 123.182C75.4141 123.921 76.1485 124.436 77.2891 124.756C78.0235 124.962 78.8281 125.071 79.6016 125.174C79.7422 125.192 79.8906 125.211 80.0313 125.235C80.9453 125.362 81.9531 125.404 83.0156 125.374C84.4844 125.326 85.6875 125.071 86.5938 124.617C86.8359 124.496 87.0625 124.357 87.2656 124.212C87.6406 123.939 87.9375 123.6 88.1563 123.206C88.9922 121.681 89.3672 119.834 89.1797 118.266C89.0391 117.109 88.2735 116.353 86.8438 115.953C85.9531 115.699 84.8828 115.62 83.8125 115.62Z" fill="white"/>
<path d="M70.5625 118.998C70.2109 118.998 70.1875 118.98 70.1328 118.938C70.0859 118.902 70.0625 118.853 70.0625 118.805C70.0625 118.702 70.1641 118.623 70.2969 118.623C70.3203 118.623 70.3438 118.623 70.3672 118.629C70.6406 118.641 72.4531 118.587 73.5703 118.544C73.7031 118.538 73.8125 118.617 73.8125 118.72C73.8203 118.823 73.7187 118.908 73.5859 118.908C73.5781 118.908 72.7734 118.938 71.9688 118.962C71.2422 118.992 70.8203 118.998 70.5625 118.998ZM70.5234 118.756C70.5313 118.774 70.5313 118.787 70.5313 118.805C70.5313 118.793 70.5313 118.774 70.5234 118.756Z" fill="white"/>
<path d="M70.5625 119.677C70.2109 119.677 70.1875 119.658 70.1328 119.616C70.0859 119.58 70.0625 119.531 70.0625 119.483C70.0625 119.38 70.1641 119.301 70.2969 119.301C70.3203 119.301 70.3438 119.301 70.3672 119.307C70.6406 119.319 72.4531 119.265 73.5703 119.222C73.7031 119.216 73.8125 119.295 73.8125 119.398C73.8203 119.501 73.7187 119.586 73.5859 119.586C73.5781 119.586 72.7734 119.616 71.9688 119.64C71.2422 119.664 70.8203 119.677 70.5625 119.677Z" fill="white"/>
<path d="M53.4531 119.876C53.0938 119.876 52.7422 119.822 52.5313 119.592C52.4297 119.483 52.3906 119.362 52.3594 119.247C52.1797 118.538 52.2188 118.157 52.4922 118.012C52.5625 117.975 52.6406 117.963 52.6797 117.957C53.1719 117.884 53.6641 117.915 54.1406 117.939C54.25 117.945 54.3672 117.951 54.4766 117.957C54.6094 117.963 54.7031 118.048 54.6953 118.151C54.6875 118.254 54.5781 118.326 54.4453 118.32C54.3281 118.314 54.2188 118.308 54.1016 118.302C53.6328 118.278 53.1953 118.254 52.7578 118.314H52.75C52.7344 118.345 52.6406 118.52 52.8125 119.174C52.836 119.253 52.8594 119.325 52.9063 119.38C53.0625 119.549 53.5391 119.513 53.9219 119.489C54.1016 119.477 54.2656 119.465 54.4063 119.471C54.5391 119.477 54.6328 119.562 54.625 119.664C54.6172 119.767 54.5078 119.84 54.375 119.834C54.2656 119.828 54.1172 119.84 53.961 119.852C53.8125 119.864 53.6328 119.876 53.4531 119.876Z" fill="white"/>
<path d="M89.4062 119.955C89.3828 119.955 89.3516 119.949 89.3281 119.943C89.2031 119.907 89.1406 119.804 89.1875 119.713C89.2578 119.555 89.4922 119.537 89.625 119.525C89.6328 119.525 89.6406 119.525 89.6484 119.525C89.8437 119.501 90.0469 119.495 90.25 119.489C90.4453 119.483 90.6484 119.477 90.8984 119.477C90.9375 119.477 90.9766 119.477 91.0078 119.477C91.1719 119.483 91.1953 119.477 91.2187 119.446C91.2578 119.398 91.2578 119.271 91.25 119.18C91.25 119.138 91.25 119.089 91.25 119.047L91.2734 118.556C91.2813 118.405 91.2734 118.357 91.2031 118.308C91.1641 118.296 91.0156 118.308 90.9453 118.314C90.8906 118.32 90.8359 118.326 90.7812 118.326C90.5469 118.332 90.3516 118.338 90.1797 118.351C90.1563 118.351 90.125 118.351 90.0781 118.351C89.7734 118.357 89.6406 118.375 89.5938 118.387C89.5313 118.454 89.4219 118.478 89.3203 118.447C89.1953 118.411 89.1328 118.308 89.1797 118.217C89.2734 118.018 89.6328 117.993 90.0625 117.987C90.0938 117.987 90.125 117.987 90.1406 117.987C90.3203 117.975 90.5156 117.969 90.7578 117.963C90.7891 117.963 90.8359 117.957 90.8828 117.951C91.0703 117.933 91.3203 117.909 91.5 118.03C91.75 118.193 91.7422 118.405 91.7344 118.569L91.7109 119.059C91.7109 119.089 91.7109 119.126 91.7109 119.168C91.7187 119.319 91.7266 119.507 91.5937 119.652C91.4141 119.852 91.1562 119.846 90.9766 119.84C90.9453 119.84 90.9141 119.84 90.8828 119.84C90.6406 119.84 90.4375 119.846 90.25 119.852C90.0547 119.858 89.875 119.864 89.6953 119.888C89.6875 119.888 89.6719 119.888 89.6562 119.895C89.6328 119.895 89.5937 119.901 89.5625 119.907C89.5312 119.931 89.4687 119.955 89.4062 119.955Z" fill="white"/>
<defs>
<radialGradient id="paint0_radial_5_41" cx="0" cy="0" r="1" gradientUnits="userSpaceOnUse" gradientTransform="translate(85 85) rotate(90) scale(81)">
<stop offset="0.93" stop-color="#F3DBAF" stop-opacity="0.8"/>
<stop offset="1" stop-color="#8D7F65" stop-opacity="0.8"/>
</radialGradient>
</defs>
</svg>
